<?xml version="1.0" encoding="UTF-8"?>
<svg id="Layer_1" xmlns="http://www.w3.org/2000/svg" version="1.1" viewBox="0 0 595.28 841.89">
  <!-- Generator: Adobe Illustrator 30.1.0, SVG Export Plug-In . SVG Version: 2.1.1 Build 136)  -->
  <defs>
    <style>
      .st0 {
        fill: #ece9ea;
      }

      .st1 {
        fill: #f7efea;
      }

      .st2 {
        fill: #010101;
      }

      .st3 {
        fill: #f1f2f2;
        font-family: OldEnglishTextMT, 'Old English Text MT';
        font-size: 55px;
      }

      .st3, .st4 {
        isolation: isolate;
      }

      .st5 {
        fill: #797572;
      }

      .st6 {
        fill: #d7d3d0;
      }

      .st7 {
        fill: #fafaf8;
      }

      .st8 {
        fill: #faf7f6;
      }

      .st9 {
        fill: #1f1d1c;
      }

      .st10 {
        fill: #fbf8f6;
      }

      .st11 {
        fill: #f2eae6;
      }

      .st12 {
        fill: #dcd8d7;
      }

      .st13 {
        fill: #faf7f1;
      }

      .st14 {
        fill: #eeeae7;
      }

      .st15 {
        fill: #f4f4f4;
      }

      .st16 {
        fill: #f7eceb;
      }

      .st17 {
        fill: #e7dfe0;
      }

      .st18 {
        fill: #5d5c5e;
      }

      .st19 {
        fill: #faf5f2;
      }

      .st20 {
        fill: #f7f4f1;
      }

      .st21 {
        fill: #ebe2e2;
      }
    </style>
  </defs>
  <g>
    <path class="st2" d="M317.11,572.63c-.84-11.37-7.03-22.65-8.98-34.16,1.81.18,3.31.3,4.46-1.5.81-1.27,1.3-3.3.6-5.36-1.12-3.32-3.86-4.51-6.6-3.32-.63-2.12-.89-4.27-.69-6.81,1.69,1.26,3.05,1.14,4.56.23,1.31-.78,2.02-2.8,2.44-4.46,1.26-4.97-2.69-6.17-3.85-8.98-2.35-7.32-2.83-15.52-3.52-23.71-.44-5.28-.82-10.56-1.18-15.83-.67.63-1.34,1.26-2.05,1.85-1.13.94-2.42,2-3.9,2.32-1.99.44-3.74-.6-5.23-1.8-.57-.46-1.11-.97-1.66-1.46-.13-.12-.27-.24-.41-.35-.06.91-.11,1.81-.17,2.72-.83,12.4-2.03,24.07-3.94,36.02-1.08,1.25-2.34,1.85-3.28,3.22-1.68,2.46-1.96,5.79-.49,8.45,1.21,2.19,3.51,3.46,6.07,1.97.19,2.45-.03,4.34-.72,6.56-2.35-.8-4.66-.48-6,2.04-1.05,1.97-1.13,4.38-.08,6.37.89,1.69,2.61,2.24,4.57,1.89-2.62,15.29-17.55,40.54-1.99,51.63-.76,2.81-.13,5.03,1.23,6.82,1.27,1.67,3.35,1.94,5.19,2.12,1.27,3.1,2.94,7.08,6.39,6.81,3.12-.24,4.47-3.81,5.77-6.73,1.79-.5,4.08-.33,5.56-2.65,1.01-1.57,1.52-3.54,1.04-6.41,5.4-3.33,7.37-10.36,6.85-17.52v.03Z"/>
    <path class="st2" d="M310.16,241.97c-7.12-7.68-16.8-8.11-24.23-.75-3.93,3.9-7.05,8.3-9.81,13.75-8.49,16.79-12.46,36.86-11.44,56.85.8,15.9,7.06,29.59,17.66,37.71,9.91,7.59,10.26,21.15,10.62,35.04v.27c1.5-.11,2.96.24,4.37.97.65.34,1.27.73,1.91,1.07.07.04.14.07.19.09.18.06.35.13.54.18.03,0,.23.05.35.07.11,0,.31.01.34.01.05,0,.08,0,.1.01.03-.01.06-.02.11-.04.18-.06.37-.1.56-.15.08-.02.23-.07.29-.09.2-.09.4-.18.59-.28.02,0,.04-.02.05-.03.01-.81.02-1.62.03-2.43.13-6.61.47-12.86,1.6-19.15,1.17-6.56,4.03-11.76,8.49-15.22,11.42-8.86,17.91-23.81,18.24-41.03.45-22.81-6.53-51.69-20.56-66.84h0Z"/>
    <path class="st7" d="M326.71,313.91c3.59-35.11-16.49-86.44-36.59-71.21-4.4,3.33-7.91,8.06-10.86,13.78-7.87,15.26-11.78,33.48-11.35,51.86.21,8.9,2.11,17.19,5.78,24.6,3.84,7.74,9.46,12.3,15.41,16.85-9.45-3.66-16.62-13.09-20.03-24.86-5.78-20-1.01-47.56,7.36-65.66,6.3-13.62,17.98-28.04,30.6-16.74,13.9,12.43,20.79,39.83,21.42,60.82,1.13,37.78-21.89,46.12-21.49,46.51-.17-.16-.77-.66-.5-.82,11.21-6.66,18.64-19.45,20.24-35.11v-.02Z"/>
    <path class="st8" d="M289.69,548.42c-.87,5.81-4.82,20.31-1.44,24.62,3.06-.32,5.71.97,6.74,4.83.77,2.91-.24,6.86-2.9,8.71-4.3,2.97-9.34-.51-10.88-6.48-1.31-5.06-.8-10.39.75-15.49l6.53-21.43c1.1-3.6,1.2-9.14-1.61-11.46-.47-.39-1.96-.32-1.58.73.24.66,1.27.69,1.46,1.46.16.65,0,1.28-.33,1.66-.55.63-1.19.76-1.8.24-1.18-1-1.08-3.16-.29-4.39.84-1.31,2.39-1.35,3.59-.15,3.69,3.67,2.03,10.76.55,15.83l-5.41,18.46c-1.33,4.55-1.91,9.35-.68,14.06,1.35,5.2,5.66,8.06,9.44,5.51,2.34-1.57,2.81-5.19,1.84-7.68-1.19-3.05-3.62-3.29-6.1-2.56-4.22-2.9-.4-22.23,2.13-26.49v.02Z"/>
    <path class="st20" d="M307.02,572.95c2.74-4.65.1-16.71-1.31-22.42.4-.63.72.21,1.07.44.29.19.12.97.3,1.65,1.63,6.14,2.87,12.14,2.11,18.57-.12,1.02-.61,3.74-1.51,3.49-2.91-.8-5.96.22-6.55,4.23-.51,3.44,1.28,6.88,4.49,7.21,4.03.42,7.16-3.72,7.74-9.01,1.63-14.92-13.27-36.07-6.63-45.45,1.07-1.52,2.7-1.71,3.94-.35.73.8,1.27,2.68.24,4.17-.42.61-1.13.81-1.62.54s-.79-.91-.78-1.61c0-1.03,1.05-1.05,1.51-1.74.48-.73-.75-1.4-1.14-1.18-3.84,2.18-3.17,8.93-1.84,13.25l6.14,19.92c1.4,4.54,2.14,9.27,1.24,13.97-1.07,5.59-4.83,9.83-9.16,8.99-3.48-.67-5.5-4.56-5.24-8.26.33-4.62,3.61-6.95,7.01-6.41h0Z"/>
    <path class="st15" d="M294.97,384.97c.34.07.67.15,1,.27-.16-4.38-.35-8.53-.59-12.36-.33-5.29-.79-10.54-2.85-15.39-.25-.59-.28-1.34-.51-1.47-.26-.14-.78-.7-1.09-.09,2.07,4.56,2.97,9.52,3.32,14.71.33,4.79.56,9.56.72,14.33h0Z"/>
    <path class="st15" d="M294.55,472.09c-.32-.19-.63-.41-.94-.63-.21,3.4-.43,6.82-.7,10.27,1,.23.41-1.27,1.23-1.86-.58-1.27.02-2.89.16-4.56.08-1.05.16-2.13.24-3.22h.01Z"/>
    <path class="st13" d="M323.18,313.86c-.64,9.83-4.51,18.58-10.43,24.79-2.8,2.38-5.48,5.15-9.31,4.91,11.48-8.24,18.85-22.89,19.38-39.53.01-.38,1.19-.3,1.12.11l-.22,1.4-.54,8.32Z"/>
    <path class="st10" d="M291.03,531.85c.66-4.77,1.59-9.1.98-13.69-.39-2.95-2.11-5.62-4.42-5.08-.74.17-1.31.83-1.47,1.35-.68,2.16,2.97,1.13,2.74,3.43-.06.63-.56,1.51-1.37,1.69-1.72.39-2.95-1.25-3.11-3.11-.16-1.84.7-3.82,2.43-4.5,3.06-1.19,5.66,2.23,6.2,6.22.76,5.64-.17,11.21-1.01,16.88-.08,4.22-.97-3.12-.96-3.2h-.01Z"/>
    <path class="st19" d="M303.5,516.96c-1.87,7.75,1.77,13.38-.04,18.38-1.24-6.03-2.03-11.92-1.16-17.61.63-4.12,3.33-7.05,6.29-5.63,1.35.65,2.11,2.33,2.14,3.78.04,1.54-.68,3.37-2.03,3.72-.99.25-1.55-.21-1.98-.75-.56-.69-.65-2.09.44-2.55.63-.27,1.7-.18,1.91-1.19.13-.62-.4-1.68-1.2-1.94-1.97-.66-3.71,1.04-4.38,3.8h.01Z"/>
    <path class="st17" d="M299.29,593.89c1.41.58,1.8,3.48,1.26,5.39-.39,1.39-1.53,3.83-3.22,3.54s-3.24-3.05-3.17-5.01c.09-2.45,1.02-4.35,1.98-6.19.58,3.05-2.87,8.02,1.53,10.17,2.25-1.6,2.09-4.06,1.62-7.89h0Z"/>
    <path class="st9" d="M293.74,592.3c-3.38,4.33-3.99,1.45-5,3.35-.53-.29-.9-.01-1.1-1.04-.14-.69-.73-1.13-.12-1.91,2.71.5,5.22-1.66,7.05-4,.28.35.76.37,1.07.85.72,1.08-2.71,2.19-1.9,2.75Z"/>
    <path class="st19" d="M312,567.68c.32.12,1.02,13.69-3.65,10.62,4.1-3.82,2.22-11.15,3.65-10.62Z"/>
    <path class="st12" d="M300.84,370.47h-.39c-.85-1.8,1.36-14.25,3.66-14.59-1.97,4.91-2.82,9.7-3.27,14.59Z"/>
    <path class="st10" d="M286.68,578.22c.25.26-.75.96-.94.68-.16-.23-.53-.36-1.01-.76-1.73-2.64-2.55-6.48-1.03-9.9.24,4.03.43,7.24,2.98,9.97h0Z"/>
    <path class="st14" d="M294.7,515.75c-1.87-7.39-6.51-6.44-4.96-9.2,2.82,1.15,3.96,4.64,5.27,7.43.32.46.55,1.56-.3,1.77h-.01Z"/>
    <path class="st1" d="M285.4,582c1.07-.96,1.88.42,2.87.39,2.32-.07,1.27-4.11,2.99-2.81.36.27.66,1.32.31,2.05-1.3,2.7-4.28,2.98-6.17.37h0Z"/>
    <path class="st0" d="M294.71,359.62c1.54-.88,2.77,12.03,1.77,12.29-.61-4.28-.87-7.93-1.77-12.29Z"/>
    <path class="st6" d="M299.52,367.24c.08,1.71.55,3.32-.55,4.75-.11-4.09-.73-8.26,1.2-12.25.33,2.64-.78,4.66-.65,7.51h0Z"/>
    <path class="st11" d="M308.14,592.81c-2.02,1.59-4.67-.45-5.71-2.62,2.11.86,3.67,1.29,5.71,2.62Z"/>
    <path class="st21" d="M288.73,595.65c1.02-1.9,1.62.98,5-3.35-.18.29.11.41.24.85-1.19,2.41-3.33,3.55-5.24,2.5Z"/>
    <path class="st16" d="M306.58,595.24c-1.82,1.71-4.88.32-5.5-2.7,1.84,1.51,3.18,2.54,5.5,2.7Z"/>
    <path class="st5" d="M300.84,370.47c-.02.17-.84,10.56-1.16,7.17.08-2.67-.03-5.16.77-7.17h.39Z"/>
    <path class="st18" d="M297.01,376.74c-.75-1.5-1.17-3.12-.61-4.57,1.4,1.12,1.08,3,.61,4.57Z"/>
  </g>
  <g class="st4">
    <text class="st3" transform="translate(226.87 418.78) scale(.97 1)"><tspan x="0" y="0">supper</tspan></text>
    <text class="st3" transform="translate(255.64 467.67) scale(.97 1)"><tspan x="0" y="0">club</tspan></text>
  </g>
</svg>