<?xml version="1.0" encoding="UTF-8"?>
<svg id="Layer_1" xmlns="http://www.w3.org/2000/svg" version="1.1" viewBox="0 0 595.28 841.89">
  <!-- Generator: Adobe Illustrator 30.1.0, SVG Export Plug-In . SVG Version: 2.1.1 Build 136)  -->
  <defs>
    <style>
      .st0 {
        fill: #111518;
      }

      .st1 {
        fill: #141d1d;
      }

      .st2 {
        fill: #282c2f;
      }

      .st3 {
        fill: #fff;
        font-family: OldEnglishTextMT, 'Old English Text MT';
        font-size: 33px;
        stroke: #000;
        stroke-miterlimit: 10;
        stroke-width: .25px;
      }

      .st3, .st4 {
        isolation: isolate;
      }

      .st5 {
        fill: #05080e;
      }

      .st6 {
        fill: #0d1519;
      }

      .st7 {
        fill: #081015;
      }

      .st8 {
        fill: #050809;
      }

      .st9 {
        fill: #050507;
      }

      .st10 {
        fill: #131615;
      }

      .st11 {
        fill: #080b0e;
      }

      .st12 {
        fill: #0b0b0b;
      }

      .st13 {
        fill: #18201f;
      }

      .st14 {
        fill: #e0e2e3;
      }

      .st15 {
        fill: #050a0d;
      }

      .st16 {
        fill: #868a8d;
      }

      .st17 {
        fill: #040709;
      }

      .st18 {
        fill: #fefefe;
      }

      .st19 {
        fill: #081314;
      }

      .st20 {
        fill: #232728;
      }

      .st21 {
        fill: #a2a3a1;
      }
    </style>
  </defs>
  <g>
    <path class="st18" d="M309.23,511.95c-.5-6.82-4.22-13.59-5.39-20.5,1.09.11,1.98.18,2.67-.9.49-.76.78-1.98.36-3.22-.67-1.99-2.31-2.71-3.96-1.99-.38-1.27-.53-2.56-.42-4.08,1.02.76,1.83.68,2.74.14.79-.47,1.21-1.68,1.47-2.68.76-2.98-1.61-3.7-2.31-5.39-1.41-4.39-1.7-9.31-2.11-14.22-.27-3.17-.49-6.34-.71-9.5-.4.38-.81.76-1.23,1.11-.68.57-1.45,1.2-2.34,1.39-1.2.26-2.24-.36-3.14-1.08-.34-.28-.66-.58-.99-.88-.08-.07-.16-.14-.25-.21-.03.54-.07,1.09-.1,1.63-.5,7.44-1.22,14.44-2.36,21.61-.65.75-1.4,1.11-1.97,1.93-1.01,1.47-1.18,3.48-.3,5.07.72,1.32,2.1,2.08,3.64,1.18.12,1.47-.02,2.6-.43,3.94-1.41-.48-2.8-.29-3.6,1.22-.63,1.18-.68,2.63-.05,3.82.54,1.01,1.56,1.35,2.74,1.13-1.57,9.17-10.53,24.32-1.19,30.98-.46,1.69-.08,3.02.74,4.09.76,1,2.01,1.17,3.12,1.27.76,1.86,1.76,4.25,3.84,4.09,1.87-.14,2.68-2.29,3.46-4.04,1.07-.3,2.45-.2,3.34-1.59.6-.94.91-2.13.62-3.85,3.24-2,4.42-6.22,4.11-10.51v.04Z"/>
    <path class="st18" d="M305.06,313.56c-4.27-4.61-10.08-4.86-14.54-.45-2.36,2.34-4.23,4.98-5.88,8.25-5.09,10.07-7.47,22.11-6.87,34.11.48,9.54,4.24,17.76,10.6,22.63,5.94,4.55,6.16,12.69,6.37,21.02v.16c.9-.06,1.77.14,2.62.58.39.2.76.44,1.15.64.04.02.08.04.11.05.11.04.21.08.32.11.02,0,.14.03.21.04h.26s.03-.01.06-.02c.11-.03.22-.06.33-.09.05-.01.14-.04.17-.06.12-.05.24-.11.36-.17.01,0,.02-.01.03-.02,0-.49,0-.97.02-1.46.08-3.96.28-7.72.96-11.49.7-3.94,2.42-7.05,5.09-9.13,6.85-5.32,10.74-14.28,10.95-24.62.27-13.69-3.92-31.01-12.34-40.1l.02.02Z"/>
    <path class="st9" d="M314.99,356.73c2.15-21.07-9.9-51.86-21.95-42.73-2.64,2-4.74,4.84-6.51,8.27-4.72,9.15-7.07,20.09-6.81,31.11.13,5.34,1.27,10.31,3.47,14.76s5.68,7.38,9.24,10.11c-5.67-2.2-9.97-7.85-12.02-14.92-3.47-12-.61-28.54,4.42-39.4,3.78-8.17,10.79-16.82,18.36-10.05,8.34,7.46,12.48,23.9,12.85,36.49.68,22.67-13.14,27.67-12.89,27.9-.1-.1-.46-.4-.3-.49,6.73-4,11.18-11.67,12.14-21.07v.02Z"/>
    <path class="st8" d="M292.77,497.43c-.52,3.48-2.89,12.19-.87,14.77,1.84-.19,3.43.58,4.04,2.9.46,1.75-.14,4.12-1.74,5.23-2.58,1.78-5.6-.31-6.53-3.89-.79-3.04-.48-6.24.45-9.29l3.92-12.86c.66-2.16.72-5.49-.97-6.88-.28-.23-1.18-.19-.95.44.14.39.76.41.87.87.1.39,0,.77-.2.99-.33.38-.71.46-1.08.15-.71-.6-.65-1.9-.18-2.63.51-.79,1.43-.81,2.15-.09,2.22,2.2,1.22,6.46.33,9.5l-3.24,11.08c-.8,2.73-1.14,5.61-.41,8.44.81,3.12,3.4,4.83,5.67,3.3,1.4-.94,1.69-3.11,1.1-4.61-.71-1.83-2.17-1.97-3.66-1.53-2.53-1.74-.24-13.34,1.28-15.89h.02Z"/>
    <path class="st11" d="M303.18,512.15c1.64-2.79.06-10.03-.79-13.45.24-.38.43.13.64.27.17.12.07.58.18.99.98,3.68,1.72,7.28,1.27,11.14-.07.61-.37,2.24-.91,2.09-1.74-.48-3.57.13-3.93,2.54-.31,2.07.77,4.13,2.7,4.33,2.42.25,4.3-2.23,4.64-5.41.98-8.95-7.96-21.64-3.98-27.27.64-.91,1.62-1.03,2.36-.21.44.48.76,1.61.14,2.5-.25.37-.68.49-.97.32s-.47-.55-.47-.97c0-.62.63-.63.9-1.05.29-.44-.45-.84-.69-.71-2.31,1.31-1.9,5.36-1.1,7.95l3.68,11.95c.84,2.72,1.28,5.56.74,8.38-.64,3.35-2.9,5.9-5.5,5.39-2.09-.4-3.3-2.74-3.14-4.95.2-2.77,2.16-4.17,4.21-3.84h.02Z"/>
    <path class="st12" d="M295.94,399.36c.2.04.4.09.6.16-.09-2.63-.21-5.12-.35-7.42-.2-3.17-.48-6.32-1.71-9.23-.15-.35-.17-.8-.31-.88-.16-.09-.47-.42-.65-.05,1.24,2.73,1.78,5.71,1.99,8.83.2,2.87.33,5.74.43,8.6h0Z"/>
    <path class="st12" d="M295.69,451.63c-.19-.12-.38-.24-.56-.38-.12,2.04-.26,4.09-.42,6.16.6.14.24-.76.74-1.11-.35-.76.01-1.73.09-2.74.05-.63.1-1.28.15-1.93h0Z"/>
    <path class="st5" d="M312.87,356.69c-.38,5.9-2.71,11.15-6.26,14.88-1.68,1.43-3.29,3.09-5.59,2.95,6.89-4.95,11.31-13.73,11.63-23.72,0-.23.71-.18.67.07l-.13.84-.32,4.99h0Z"/>
    <path class="st17" d="M293.58,487.49c.39-2.86.95-5.46.59-8.21-.23-1.77-1.27-3.37-2.65-3.05-.45.1-.79.5-.88.81-.41,1.3,1.78.68,1.64,2.06-.04.38-.34.9-.82,1.01-1.03.24-1.77-.75-1.87-1.86-.1-1.1.42-2.29,1.46-2.7,1.84-.72,3.4,1.34,3.72,3.73.46,3.38-.1,6.73-.61,10.13-.05,2.53-.58-1.87-.58-1.92h0Z"/>
    <path class="st15" d="M301.06,478.55c-1.12,4.65,1.06,8.03-.02,11.03-.74-3.62-1.22-7.15-.7-10.57.38-2.47,2-4.23,3.77-3.38.81.39,1.27,1.4,1.29,2.27.02.92-.41,2.02-1.22,2.23-.59.15-.93-.13-1.19-.45-.34-.41-.39-1.25.26-1.53.38-.16,1.02-.11,1.15-.71.08-.37-.24-1.01-.72-1.17-1.18-.39-2.23.62-2.63,2.28h.01Z"/>
    <path class="st13" d="M298.54,524.71c.85.35,1.08,2.09.76,3.23-.23.83-.92,2.3-1.93,2.12s-1.94-1.83-1.9-3.01c.05-1.47.61-2.61,1.19-3.71.35,1.83-1.72,4.81.92,6.1,1.35-.96,1.26-2.44.97-4.73h-.01Z"/>
    <path class="st14" d="M295.2,523.76c-2.03,2.6-2.39.87-3,2.01-.32-.17-.54,0-.66-.62-.08-.42-.44-.68-.07-1.14,1.62.3,3.13-1,4.23-2.4.17.21.46.22.64.51.43.65-1.63,1.31-1.14,1.65h0Z"/>
    <path class="st15" d="M306.16,508.98c.19.07.61,8.21-2.19,6.37,2.46-2.29,1.33-6.69,2.19-6.37h0Z"/>
    <path class="st20" d="M299.47,390.66h-.24c-.51-1.08.81-8.55,2.19-8.75-1.18,2.94-1.69,5.82-1.96,8.75h0Z"/>
    <path class="st17" d="M290.97,515.31c.15.16-.45.58-.56.41-.1-.14-.32-.22-.61-.45-1.04-1.59-1.53-3.89-.62-5.94.14,2.42.26,4.34,1.79,5.98h0Z"/>
    <path class="st0" d="M295.78,477.83c-1.12-4.43-3.91-3.86-2.98-5.52,1.69.69,2.37,2.79,3.16,4.46.19.28.33.93-.18,1.06Z"/>
    <path class="st7" d="M290.2,517.58c.64-.57,1.13.25,1.72.23,1.39-.04.76-2.47,1.79-1.69.22.16.4.79.19,1.23-.78,1.62-2.57,1.79-3.7.22h0Z"/>
    <path class="st10" d="M295.79,384.15c.93-.53,1.66,7.22,1.06,7.38-.37-2.57-.52-4.76-1.06-7.38Z"/>
    <path class="st2" d="M298.67,388.72c.05,1.02.33,1.99-.33,2.85-.06-2.46-.44-4.96.72-7.35.2,1.58-.47,2.8-.39,4.5Z"/>
    <path class="st6" d="M303.85,524.07c-1.21.95-2.8-.27-3.43-1.57,1.26.52,2.2.78,3.43,1.57Z"/>
    <path class="st1" d="M292.2,525.77c.61-1.14.97.59,3-2.01-.11.17.07.25.14.51-.71,1.45-2,2.13-3.15,1.5h0Z"/>
    <path class="st19" d="M302.91,525.52c-1.09,1.03-2.93.19-3.3-1.62,1.11.9,1.91,1.52,3.3,1.62Z"/>
    <path class="st16" d="M299.47,390.66c0,.1-.51,6.33-.7,4.3.05-1.6-.02-3.1.46-4.3h.24Z"/>
    <path class="st21" d="M297.17,394.42c-.45-.9-.7-1.87-.37-2.74.84.67.65,1.8.37,2.74Z"/>
  </g>
  <g class="st4">
    <text class="st3" transform="translate(255.08 419.64) scale(.97 1)"><tspan x="0" y="0">supper</tspan></text>
    <text class="st3" transform="translate(272.35 448.97) scale(.97 1)"><tspan x="0" y="0">club</tspan></text>
  </g>
</svg>